<svg width="51" height="49" viewBox="0 0 51 49" fill="none" xmlns="http://www.w3.org/2000/svg">
<path d="M7.25209 5.97966L0 11.9501V30.4797V49H18.36L36.7088 48.9908L38.3901 47.4589C40.2508 45.7426 46.4268 40.2797 49.1169 37.945L50.8543 36.4409L50.9215 30.009C50.9664 26.4748 51 20.3105 51 16.3149V9.05254L47.3347 5.6936C45.3059 3.85725 43.0866 1.81789 42.3916 1.17194L41.1138 2.38419e-07H27.8202H14.5154L7.25209 5.97966ZM31.3398 10.9535C31.5191 11.0365 31.8666 11.7194 32.7073 13.6296C33.8618 16.2687 40.5422 31.504 41.8312 34.4661C42.2347 35.3797 42.5262 36.1548 42.4925 36.1917C42.4477 36.2286 40.8448 36.2932 38.9169 36.3209L35.4198 36.3855L35.2741 36.0718C35.1844 35.8964 34.6912 34.623 34.1756 33.248L33.2341 30.7288H30.4207C28.8738 30.7288 26.251 30.7565 24.5921 30.7934L21.5657 30.8488L20.456 33.4418C19.8508 34.8721 19.3015 36.081 19.2455 36.1456C19.1782 36.2286 18.2703 36.2563 15.8492 36.2655C13.047 36.2655 12.5426 36.2471 12.4866 36.1363C12.4305 36.0072 15.2776 29.7322 21.5881 16.075L24.0316 10.7874L27.5736 10.8151C30.0732 10.8335 31.1716 10.8797 31.3398 10.9535Z" fill="white"/>
<path d="M27.3383 17.5053C26.3519 19.3601 23.3591 26.364 23.4936 26.4748C23.6169 26.5855 31.138 26.5394 31.2726 26.4286C31.3734 26.3456 31.1941 25.7827 30.6 24.214C28.5488 18.8156 27.8315 17.0716 27.6745 17.0716C27.6073 17.0716 27.4616 17.2654 27.3383 17.5053Z" fill="white"/>
</svg>
