<svg width="103" height="26" viewBox="0 0 103 26" fill="none" xmlns="http://www.w3.org/2000/svg">
<path d="M8.76262 10.6566C7.71547 10.8272 7.3498 11.322 4.77348 16.1504C3.5435 18.4366 1.94785 21.3541 1.23313 22.6678C0.501789 23.9645 -0.0467169 25.1417 0.00314724 25.2611C0.0696328 25.4488 0.751109 25.5 3.42715 25.5H7.00838L7.49995 24.9767C8.49723 24.0042 15.1951 11.2538 14.9956 10.7419C14.9291 10.5372 14.4471 10.486 12.2032 10.5031C10.7073 10.5201 9.16153 10.5884 8.76262 10.6566Z" fill="white"/>
<path d="M13 17.8546C13 18.0554 13.1569 18.5301 13.3608 18.9136C13.5647 19.2787 14.2078 20.6664 14.7881 21.981C15.3685 23.3138 16.0587 24.6284 16.3096 24.9023L16.7802 25.4318L19.3055 25.4866C20.8427 25.5231 21.8779 25.4866 21.9877 25.3588C22.2073 25.1032 19.4153 19.0049 18.7095 18.2015L18.1605 17.5807L15.5724 17.5259C13.0471 17.4712 13 17.4712 13 17.8546Z" fill="white"/>
<path d="M13 1.76061C13 2.35631 21.3027 20.1154 22.973 23.1124C23.3622 23.8012 23.9459 24.583 24.2865 24.8809L24.8865 25.4207L27.9514 25.4766C30.4324 25.5324 31 25.4952 31 25.2904C31 25.1415 30.3838 23.6895 29.6378 22.07C28.9081 20.4318 26.6703 15.4801 24.6757 11.0869C22.6973 6.67507 20.8811 2.84031 20.6378 2.54246C19.8919 1.59308 19.4541 1.5 16.0811 1.5C13.5676 1.5 13 1.55585 13 1.76061Z" fill="white"/>
<path d="M34.0587 11.2061C34.1026 21.7077 34.088 21.4028 34.9091 22.9409C35.6276 24.2801 37.3284 25.5 38.4868 25.5H39V1.5H34L34.0587 11.2061Z" fill="white"/>
<path d="M93.1727 8.69203C92.0648 8.92404 91.3885 9.24628 90.5108 9.9552C90.1079 10.2774 89.7338 10.5481 89.6907 10.5481C89.6475 10.5481 89.6043 10.1357 89.6043 9.64585V8.74358H85V25.5H89.7338L89.777 20.3055C89.8201 15.2141 89.8201 15.111 90.1511 14.4794C91.0144 12.8038 93 11.9531 95.1151 12.3527C96.8561 12.6749 97.8345 13.8221 98.0935 15.8328C98.1655 16.4386 98.2374 18.8619 98.2374 21.2078V25.5H103L102.914 13.7061L102.511 12.6878C101.647 10.5095 100.165 9.20761 97.9209 8.66625C96.9424 8.43424 94.2662 8.44712 93.1727 8.69203Z" fill="white"/>
<path d="M69.8972 7.73316C66.6072 8.5688 64.1536 10.8768 63.2614 13.9806C62.9129 15.1876 62.9129 17.9731 63.2614 19.074C63.7214 20.5463 64.4464 21.6472 65.715 22.8675C66.6629 23.7827 67.123 24.1144 68.0849 24.5521C71.1937 25.9979 75.1808 25.7724 77.9271 23.995C78.7915 23.4511 80.1855 22.0584 80.7013 21.2626C81.5239 19.9759 81.9142 18.623 81.9839 16.8191C82.0676 14.9223 81.8306 13.702 81.1475 12.3093C80.2831 10.5849 78.889 9.25854 77.0907 8.4229C75.7524 7.79948 74.7486 7.58726 72.7551 7.52094C71.2355 7.46788 70.7755 7.50767 69.8972 7.73316ZM74.665 11.8716C78.5126 13.5561 78.5126 19.4189 74.651 21.1034C73.5358 21.5942 71.8211 21.6605 70.7058 21.2626C68.8795 20.6126 67.6806 18.9679 67.5552 16.965C67.3879 14.2061 68.6704 12.3093 71.1519 11.6461C72.2532 11.3543 73.6891 11.4471 74.665 11.8716Z" fill="white"/>
<path d="M57.6951 0.540649L56.4507 0.594851V5.05286C56.4507 7.51899 56.4106 9.52441 56.3704 9.52441C56.3303 9.52441 56.1028 9.37536 55.8754 9.19921C54.5239 8.15584 52.1556 7.35638 50.443 7.35638C47.3521 7.35638 44.3014 9.30761 42.95 12.1396C42.2542 13.5759 42 14.7548 42 16.584C42 19.1179 42.6958 21.1098 44.1676 22.7223C45.7866 24.5244 47.6866 25.3781 50.2958 25.4865C52.5972 25.5814 53.8817 25.1884 55.5542 23.9147L56.4507 23.2236V25.1071H61L60.9732 12.8036L60.9331 0.51355L59.9296 0.5C59.381 0.5 58.3641 0.513549 57.6951 0.540649ZM53.7746 11.7466C55.7282 12.7358 56.7451 14.7006 56.5444 17.0854C56.4239 18.454 56.0894 19.2399 55.2465 20.1071C54.2162 21.1776 53.3465 21.5028 51.5669 21.5163C50.3894 21.5163 50.1352 21.4757 49.4662 21.1505C47.8873 20.4052 46.9373 19.145 46.6831 17.4106C46.2683 14.7006 47.7535 12.1667 50.162 11.4892C51.3127 11.1775 52.8648 11.2859 53.7746 11.7466Z" fill="white"/>
</svg>
