<svg width="1358" height="234" viewBox="0 0 1358 234" fill="none" xmlns="http://www.w3.org/2000/svg">
<path d="M0 231.797L20.752 16.9531H93.6279L114.014 231.797H73.3643L70.3125 197.129H44.4336L41.748 231.797H0ZM47.4854 162.827H67.0166L57.6172 53.5742H55.6641L47.4854 162.827Z" fill="white"/>
<path d="M127.197 231.797V16.9531H170.166V195.176H214.355V231.797H127.197Z" fill="white"/>
<path d="M226.562 231.797V16.9531H285.645C301.107 16.9531 312.744 21.2663 320.557 29.8926C328.369 38.4375 332.275 50.9701 332.275 67.4902V168.076C332.275 188.421 328.695 204.128 321.533 215.195C314.453 226.263 302.002 231.797 284.18 231.797H226.562ZM269.775 193.833H277.222C285.116 193.833 289.062 190.008 289.062 182.358V71.5186C289.062 64.3571 288.086 59.7591 286.133 57.7246C284.261 55.6087 280.396 54.5508 274.536 54.5508H269.775V193.833Z" fill="white"/>
<path d="M401.123 233.75C383.952 233.75 370.809 228.582 361.694 218.247C352.661 207.83 348.145 192.816 348.145 173.203V71.1523C348.145 52.7604 352.62 38.8037 361.572 29.2822C370.605 19.7607 383.789 15 401.123 15C418.457 15 431.6 19.7607 440.552 29.2822C449.585 38.8037 454.102 52.7604 454.102 71.1523V173.203C454.102 192.816 449.544 207.83 440.43 218.247C431.396 228.582 418.294 233.75 401.123 233.75ZM401.489 194.199C408 194.199 411.255 187.892 411.255 175.278V70.4199C411.255 59.8405 408.081 54.5508 401.733 54.5508C394.572 54.5508 390.991 59.9626 390.991 70.7861V175.522C390.991 182.196 391.805 186.997 393.433 189.927C395.06 192.775 397.746 194.199 401.489 194.199Z" fill="white"/>
<path d="M471.436 231.797V16.9531H515.625L535.4 119.858V16.9531H576.904V231.797H534.912L513.428 124.375V231.797H471.436Z" fill="white"/>
<path d="M1301.11 234C1282.72 234 1268.65 228.472 1258.89 217.416C1249.21 206.273 1244.37 190.212 1244.37 169.232V60.067C1244.37 40.3929 1249.17 25.4632 1258.75 15.2779C1268.43 5.09263 1282.55 0 1301.11 0C1319.68 0 1333.76 5.09263 1343.34 15.2779C1353.02 25.4632 1357.86 40.3929 1357.86 60.067V169.232C1357.86 190.212 1352.97 206.273 1343.21 217.416C1333.54 228.472 1319.51 234 1301.11 234ZM1301.51 191.692C1308.48 191.692 1311.97 184.945 1311.97 171.452V59.2835C1311.97 47.9665 1308.57 42.308 1301.77 42.308C1294.1 42.308 1290.26 48.0971 1290.26 59.6752V171.713C1290.26 178.852 1291.13 183.988 1292.88 187.122C1294.62 190.169 1297.5 191.692 1301.51 191.692Z" fill="white"/>
<path d="M1180.77 231.911V2.08936H1225.22V231.911H1180.77Z" fill="white"/>
<path d="M1048.14 231.911V2.08936H1111.42C1127.98 2.08936 1140.44 6.70319 1148.81 15.9309C1157.17 25.0715 1161.36 38.4777 1161.36 56.1496V163.748C1161.36 185.511 1157.52 202.313 1149.85 214.152C1142.27 225.991 1128.94 231.911 1109.85 231.911H1048.14ZM1094.42 191.3H1102.39C1110.85 191.3 1115.08 187.209 1115.08 179.026V60.4588C1115.08 52.7981 1114.03 47.8795 1111.94 45.7032C1109.93 43.4398 1105.79 42.3081 1099.52 42.3081H1094.42V191.3Z" fill="white"/>
<path d="M971.853 234C952.677 234 938.557 228.646 929.493 217.939C920.428 207.144 915.896 191.3 915.896 170.407V2.08936H960.609V168.579C960.609 172.41 960.827 176.109 961.263 179.679C961.698 183.161 962.701 186.034 964.27 188.297C965.839 190.56 968.366 191.692 971.853 191.692C975.426 191.692 977.997 190.604 979.566 188.428C981.135 186.164 982.094 183.248 982.443 179.679C982.878 176.109 983.096 172.41 983.096 168.579V2.08936H1027.81V170.407C1027.81 191.3 1023.28 207.144 1014.21 217.939C1005.15 228.646 991.028 234 971.853 234Z" fill="white"/>
<path d="M829.806 231.911V46.2255H802.481V2.08936H903.151V46.2255H875.827V231.911H829.806Z" fill="white"/>
<path d="M738.356 234C717.35 234 702.185 228.777 692.858 218.33C683.619 207.884 679 191.257 679 168.449V145.989H724.498V174.717C724.498 180.027 725.282 184.205 726.851 187.252C728.507 190.212 731.34 191.692 735.349 191.692C739.533 191.692 742.409 190.473 743.978 188.036C745.634 185.598 746.462 181.594 746.462 176.022C746.462 168.971 745.765 163.095 744.37 158.394C742.976 153.606 740.535 149.079 737.049 144.814C733.649 140.461 728.899 135.412 722.798 129.666L702.141 110.079C686.714 95.5413 679 78.9141 679 60.1975C679 40.6105 683.532 25.6808 692.597 15.4085C701.749 5.13616 714.954 0 732.211 0C753.304 0 768.252 5.61495 777.055 16.8449C785.946 28.0748 790.391 45.1373 790.391 68.0324H743.586V52.2321C743.586 49.0982 742.671 46.6607 740.84 44.9196C739.097 43.1786 736.7 42.308 733.649 42.308C729.989 42.308 727.287 43.3527 725.544 45.442C723.887 47.4442 723.059 50.0558 723.059 53.2768C723.059 56.4978 723.931 59.9799 725.674 63.7232C727.417 67.4665 730.86 71.7757 736.003 76.6507L762.543 102.114C767.86 107.163 772.741 112.517 777.186 118.175C781.631 123.747 785.205 130.276 787.907 137.762C790.609 145.162 791.96 154.215 791.96 164.923C791.96 186.512 787.95 203.444 779.931 215.719C772 227.906 758.141 234 738.356 234Z" fill="white"/>
</svg>
