<svg width="1044" height="230" viewBox="0 0 1044 230" fill="none" xmlns="http://www.w3.org/2000/svg">
<path d="M795.072 186.944C792.594 186.944 790.608 186.944 788.234 186.944C788.234 130.384 788.234 73.9997 788.234 17.2301C789.239 17.1495 790.507 16.9615 791.774 16.9596C805.438 16.9389 819.102 16.8793 832.766 16.9629C858.295 17.1191 870.94 28.741 871.33 54.1602C871.805 85.1386 871.421 116.139 870.825 147.118C870.697 153.765 868.753 160.609 866.462 166.935C861.225 181.4 849.524 186.679 835.055 186.901C821.894 187.102 808.727 186.944 795.072 186.944ZM837.155 112.5C837.155 94.6938 837.201 76.8874 837.137 59.0814C837.097 48.0828 833.159 45.0515 822.211 47.3801C822.211 83.7602 822.211 120.146 822.211 156.505C834.495 157.987 837.155 155.716 837.155 143.954C837.155 133.803 837.155 123.651 837.155 112.5Z" fill="white"/>
<path d="M1004.7 177.689C991.324 192.164 956.923 192.095 943.948 176.545C936.514 167.635 933.293 157.246 933.159 146.116C932.794 115.792 932.676 85.4551 933.132 55.1336C933.527 28.8881 951.018 13.6096 977.454 15.3831C1002.29 17.0494 1015.59 28.9874 1016.42 54.3678C1017.49 86.6368 1016.55 118.983 1015.97 151.288C1015.79 161.145 1011.68 170.003 1004.7 177.689ZM966.939 125.5C966.939 129.498 966.785 133.504 966.978 137.492C967.219 142.448 967.126 147.564 968.438 152.258C969.01 154.308 972.66 156.6 975.014 156.715C977.047 156.815 980.105 154.422 981.123 152.35C982.517 149.513 982.863 145.94 982.878 142.679C983.002 114.859 982.975 87.0392 982.904 59.2196C982.898 56.7575 982.901 53.9197 981.738 51.9383C980.488 49.8089 978.107 47.7115 975.788 46.9921C972.43 45.9508 969.464 47.9114 968.315 51.2531C967.419 53.8622 967.01 56.7597 966.997 59.5319C966.894 81.1875 966.94 102.844 966.939 125.5Z" fill="white"/>
<path d="M772.844 90.0001C772.844 107.655 773.274 124.826 772.657 141.959C772.362 150.148 770.902 158.517 768.501 166.355C765.213 177.086 757.155 183.805 746.287 186.599C736.304 189.165 726.145 189.219 716.177 186.486C700.757 182.259 693.882 170.724 691.201 156.01C690.429 151.775 690.062 147.407 690.053 143.099C689.968 102.293 690.001 61.4867 690 20.6802C690 19.5633 690 18.4464 690 17.14C701.067 17.14 711.682 17.14 723.052 17.14C723.052 18.7748 723.052 20.5172 723.052 22.2596C723.052 61.567 723.028 100.874 723.094 140.182C723.099 143.655 723.398 147.184 724.078 150.584C724.853 154.464 726.986 157.145 731.566 157.102C736.183 157.059 738.234 154.304 738.827 150.379C739.472 146.116 739.794 141.765 739.802 137.451C739.873 99.3095 739.843 61.1679 739.843 23.0264C739.843 21.2096 739.843 19.3929 739.843 17.2612C750.772 17.2612 761.506 17.2612 772.844 17.2612C772.844 41.3279 772.844 65.414 772.844 90.0001Z" fill="white"/>
<path d="M428.983 27.9434C432.609 27.9434 435.738 27.9434 439.073 27.9434C439.073 80.95 439.073 133.53 439.073 186.478C428.968 186.478 418.905 186.478 408.262 186.478C403.258 161.614 398.205 136.506 393.152 111.399C392.858 111.444 392.563 111.489 392.269 111.534C392.269 136.396 392.269 161.258 392.269 186.482C381.983 186.482 371.94 186.482 361.593 186.482C361.593 133.884 361.593 81.3139 361.593 28.3428C372.208 28.3428 382.921 28.3428 394.056 28.3428C398.636 52.0157 403.251 75.8702 407.867 99.7247C408.203 99.6721 408.539 99.6194 408.875 99.5668C408.875 75.8362 408.875 52.1057 408.875 27.9434C415.57 27.9434 422.028 27.9434 428.983 27.9434Z" fill="white"/>
<path d="M232.168 28.5918C247.772 31.5349 257.445 42.0386 257.895 58.1876C258.536 81.1611 258.29 104.162 258.255 127.151C258.236 139.429 259.176 151.782 255.273 163.794C250.319 179.038 242.241 186.047 226.376 186.658C211.249 187.241 196.083 186.784 180.544 186.784C180.544 133.913 180.544 81.2185 180.544 28.4786C197.58 28.4786 214.664 28.4786 232.168 28.5918ZM226.553 133.499C226.553 113.864 226.577 94.2283 226.533 74.5931C226.524 70.7734 226.295 66.9521 226.095 63.1354C225.839 58.2636 223.052 56.0187 218.341 55.9073C216.402 55.8615 214.461 55.8997 212.4 55.8997C212.4 90.3796 212.4 124.404 212.4 158.389C223.553 159.945 226.533 157.489 226.552 146.978C226.559 142.818 226.553 138.658 226.553 133.499Z" fill="white"/>
<path d="M566.187 80.8121C571.074 85.6066 575.575 90.299 580.345 94.6986C597.062 110.118 600.463 129.626 597.448 150.923C596.596 156.944 594.894 162.963 592.716 168.651C588.652 179.26 580.652 185.587 569.386 187.399C558.223 189.194 547.119 188.9 536.469 184.714C523.991 179.808 518.112 169.46 516.386 157.059C514.861 146.105 515.011 134.918 514.406 123.544C526.133 123.544 536.907 123.544 548.5 123.544C548.5 126.911 548.44 130.33 548.514 133.745C548.632 139.234 548.636 144.737 549.072 150.203C549.401 154.317 551.712 156.875 556.168 157.068C560.694 157.264 563.495 155.417 564.178 150.779C565.774 139.942 564.46 129.64 556.74 121.381C548.792 112.879 540.341 104.829 531.878 96.8281C514.233 80.1476 511.113 60.1847 518.225 38.3015C523.018 23.5552 535.018 15.8443 552.745 15.4272C558.666 15.2879 564.777 15.9932 570.531 17.4117C586.643 21.3845 593.185 33.6464 595.829 48.6486C596.796 54.1374 596.898 59.7785 597.42 65.6269C585.563 65.6269 574.471 65.6269 562.7 65.6269C562.7 61.9498 562.824 58.35 562.672 54.7619C562.426 48.9445 559.646 46.4237 554.208 46.8316C549.587 47.1781 546.343 50.9229 547.629 55.9675C548.736 60.3126 550.807 64.7325 553.555 68.2593C557.103 72.8125 561.75 76.5099 566.187 80.8121Z" fill="white"/>
<path d="M291.344 184.879C276.245 177.675 270.764 164.578 270.526 149.653C270.037 119.055 270.009 88.4103 271.203 57.8399C271.91 39.7174 284.842 28.3374 303.086 26.966C308.519 26.5576 314.147 26.4578 319.478 27.3983C336.36 30.377 346.994 42.1477 347.884 59.7815C348.723 76.3875 348.42 93.055 348.464 109.696C348.5 123.009 348.93 136.364 348.085 149.63C346.078 181.117 321.378 196.396 291.344 184.879ZM315.714 153.869C316.126 150.578 316.882 147.289 316.895 143.997C316.995 118.833 316.979 93.6693 316.906 68.5058C316.898 65.8736 316.905 62.9249 315.767 60.7058C314.727 58.6758 312.087 56.0959 310.258 56.1761C307.807 56.2837 304.747 58.2176 303.275 60.3033C301.918 62.2247 301.996 65.3825 301.988 67.9974C301.907 93.9941 301.916 119.991 301.976 145.988C301.981 148.454 301.889 151.23 302.946 153.299C304.083 155.528 306.215 157.921 308.464 158.749C311.656 159.924 314.137 157.819 315.714 153.869Z" fill="white"/>
<path d="M67.9937 27.9439C72.8031 27.9439 77.1141 27.9439 81.9411 27.9439C86.9695 80.884 91.9789 133.624 97.0127 186.622C86.9005 186.622 77.1443 186.622 67.0338 186.622C66.2458 178.236 65.4717 169.999 64.6648 161.412C58.5665 161.412 52.4801 161.412 45.638 161.412C44.9659 169.487 44.2719 177.825 43.5505 186.493C33.3351 186.493 23.2958 186.493 12.7468 186.493C17.8468 133.702 22.9295 81.0896 28.0638 27.9439C41.2808 27.9439 54.388 27.9439 67.9937 27.9439ZM49.1143 117.545C48.7193 123.583 48.3242 129.62 47.9376 135.53C53.1135 135.53 57.5208 135.53 62.2838 135.53C59.9464 108.458 57.6411 81.7577 55.3358 55.0578C54.8622 55.0689 54.3887 55.0801 53.9151 55.0912C52.3224 75.5965 50.7296 96.1018 49.1143 117.545Z" fill="white"/>
<path d="M660.293 97.0001C660.293 127.134 660.293 156.769 660.293 186.676C648.887 186.676 637.828 186.676 626.33 186.676C626.33 141.045 626.33 95.6354 626.33 49.7779C619.491 49.7779 613.071 49.7779 606.358 49.7779C606.358 38.7594 606.358 28.1835 606.358 17.273C630.85 17.273 655.424 17.273 680.355 17.273C680.355 27.7289 680.355 38.3006 680.355 49.5107C673.917 49.5107 667.364 49.5107 660.293 49.5107C660.293 65.5932 660.293 81.0467 660.293 97.0001Z" fill="white"/>
<path d="M138.489 103C138.489 122.116 138.489 140.731 138.489 159.79C149.544 159.79 160.111 159.79 170.903 159.79C170.903 168.958 170.903 177.679 170.903 186.621C149.585 186.621 128.515 186.621 107.145 186.621C107.145 133.797 107.145 81.1141 107.145 28.1888C117.454 28.1888 127.7 28.1888 138.489 28.1888C138.489 53.021 138.489 77.7606 138.489 103Z" fill="white"/>
<path d="M885.943 113C885.943 80.8618 885.943 49.2235 885.943 17.2645C896.87 17.2645 907.589 17.2645 918.58 17.2645C918.58 73.6985 918.58 130.076 918.58 186.701C907.806 186.701 897.212 186.701 885.943 186.701C885.943 162.323 885.943 137.911 885.943 113Z" fill="white"/>
<path d="M844 192.981C850.792 192.981 857.085 192.981 864.137 192.981C861.703 199.688 856.973 203.328 851.505 205.516C846.818 207.392 841.602 208.699 836.579 208.841C821.452 209.268 806.306 209.009 791.167 208.997C790.362 208.997 789.557 208.817 788.38 208.676C788.38 203.658 788.38 198.764 788.38 192.981C806.737 192.981 825.118 192.981 844 192.981Z" fill="#747474"/>
<path d="M230 192.981C237.787 192.981 245.075 192.981 253.12 192.981C250.823 199.264 246.57 203.082 241.588 205.402C237.196 207.447 232.075 208.705 227.231 208.858C213.104 209.301 198.953 208.904 184.815 209.096C181.147 209.146 179.655 208.172 179.984 204.351C180.282 200.898 180.047 197.398 180.047 192.981C196.748 192.981 213.124 192.981 230 192.981Z" fill="#747474"/>
<path d="M143 192.982C152.453 192.982 161.407 192.982 170.693 192.982C170.693 198.46 170.693 203.357 170.693 208.638C149.631 208.638 128.732 208.638 107.396 208.638C107.396 203.728 107.396 198.827 107.396 192.982C119.019 192.982 130.76 192.982 143 192.982Z" fill="#747474"/>
<path d="M588.883 197.739C583.616 205.103 576.943 209.201 568.078 208.996C558.811 208.781 549.428 209.183 540.317 207.829C532.038 206.599 525.766 201.217 521.42 193.238C544.741 193.238 567.565 193.238 591.161 193.238C590.328 194.949 589.719 196.198 588.883 197.739Z" fill="#747474"/>
<path d="M701.213 199.741C699.633 197.678 698.308 195.872 696.46 193.355C720.114 193.355 742.742 193.355 765.409 193.355C762.891 201.39 752.356 208.854 743.192 208.993C735.383 209.111 727.56 209.265 719.763 208.943C712.484 208.643 706.501 205.16 701.213 199.741Z" fill="#747474"/>
<path d="M998.56 204.691C993.139 207.969 987.704 209.425 981.648 209.091C975.683 208.761 969.685 209.11 963.704 208.993C955.447 208.832 944.167 201.116 941.207 193.429C963.757 193.429 986.138 193.429 1008.52 193.429C1008.82 193.843 1009.12 194.257 1009.42 194.67C1005.91 197.946 1002.39 201.222 998.56 204.691Z" fill="#747474"/>
<path d="M288.135 206.044C283.658 202.279 279.519 198.675 275.379 195.07C275.7 194.536 276.021 194.002 276.341 193.468C298.318 193.468 320.295 193.468 342.826 193.468C340.038 200.239 334.76 204.24 328.493 206.88C325.376 208.192 321.791 208.759 318.38 208.929C312.073 209.244 305.715 209.343 299.423 208.896C295.728 208.633 292.119 207.143 288.135 206.044Z" fill="#747474"/>
<path d="M650.953 192.978C660.086 192.978 660.114 192.979 660.077 201.728C660.043 209.765 660.958 208.982 652.977 209.015C645.674 209.046 638.367 208.882 631.07 209.083C627.738 209.175 626.886 207.928 626.845 204.75C626.695 192.977 626.588 192.978 638.51 192.978C642.494 192.978 646.477 192.978 650.953 192.978Z" fill="#747474"/>
<path d="M908.965 209.019C901.199 209.019 893.926 209.019 886.335 209.019C886.335 203.535 886.335 198.641 886.335 193.363C897.04 193.363 907.587 193.363 918.556 193.363C918.556 198.278 918.556 203.174 918.556 209.019C915.594 209.019 912.526 209.019 908.965 209.019Z" fill="#747474"/>
<path d="M438.864 194.387C438.988 199.301 438.988 203.765 438.988 208.621C428.69 208.621 418.793 208.621 408.412 208.621C407.311 203.802 406.185 198.869 404.84 192.981C412.243 192.981 419.146 192.869 426.043 193.023C430.28 193.117 434.508 193.619 438.864 194.387Z" fill="#747474"/>
<path d="M379.985 209.022C374.498 209.021 369.506 208.931 364.519 209.053C361.925 209.117 361.154 208.082 361.01 205.541C360.296 192.974 360.225 192.978 372.908 192.978C378.064 192.978 383.223 193.087 388.375 192.938C391.193 192.857 392.033 193.941 392.147 196.711C392.651 209.026 392.734 209.022 379.985 209.022Z" fill="#747474"/>
<path d="M19.1717 192.981C27.8951 192.981 36.1383 192.981 44.7742 192.981C44.4471 198.141 44.2584 202.702 43.7617 207.229C43.688 207.9 42.1678 208.91 41.3056 208.922C32.0708 209.045 22.8336 208.998 13.0518 208.998C13.4427 203.844 13.5686 199.265 14.3288 194.793C14.4695 193.966 17.1716 193.574 19.1717 192.981Z" fill="#747474"/>
<path d="M76.0329 192.981C81.3346 192.981 86.1506 193.147 90.9486 192.925C94.3561 192.768 95.8364 194.152 95.9615 197.444C96.0986 201.052 96.3613 204.655 96.5911 208.64C86.9143 208.64 77.2543 208.64 67.0647 208.64C66.6016 203.607 66.1546 198.749 65.6238 192.981C69.3921 192.981 72.4658 192.981 76.0329 192.981Z" fill="#747474"/>
</svg>
